<svg width="74" height="85" viewBox="0 0 74 85" fill="none" xmlns="http://www.w3.org/2000/svg">
<path fill-rule="evenodd" clip-rule="evenodd" d="M44.9157 29.8828C45.832 29.8828 46.5758 29.139 46.5758 28.2227C46.5758 27.3063 45.832 26.5625 44.9157 26.5625C43.9974 26.5625 43.2555 27.3063 43.2555 28.2227C43.2555 29.139 43.9974 29.8828 44.9157 29.8828Z" fill="#32325F"/>
<path fill-rule="evenodd" clip-rule="evenodd" d="M28.3141 29.8828C29.2304 29.8828 29.9743 29.139 29.9743 28.2227C29.9743 27.3063 29.2304 26.5625 28.3141 26.5625C27.3959 26.5625 26.654 27.3063 26.654 28.2227C26.654 29.139 27.3958 29.8828 28.3141 29.8828Z" fill="#32325F"/>
<path fill-rule="evenodd" clip-rule="evenodd" d="M32.1766 41.2938C33.5702 41.9508 35.0637 42.2841 36.6142 42.2841C38.1311 42.2841 39.5954 41.9644 40.967 41.334C41.8003 40.9508 42.1647 39.9651 41.7821 39.1317C41.3989 38.2991 40.4131 37.934 39.5798 38.3172C38.6466 38.7459 37.6486 38.9638 36.6142 38.9638C35.5566 38.9638 34.5397 38.7375 33.5922 38.2907C32.7628 37.8996 31.7732 38.255 31.3828 39.0844C30.9918 39.9138 31.3471 40.9028 32.1766 41.2938V41.2938Z" fill="#32325F"/>
<path fill-rule="evenodd" clip-rule="evenodd" d="M69.9075 81.6797H45.428L43.3307 72.4769L44.7749 68.307L45.8579 68.8491C46.2665 69.0534 46.7379 69.0787 47.1608 68.927C47.5875 68.7739 47.9331 68.4529 48.1173 68.0392L54.3286 54.0828C61.5938 54.6204 69.9075 60.525 69.9075 67.3641L69.9075 81.6797ZM3.32032 67.3641C3.32032 60.525 11.6341 54.6198 18.8992 54.0828L25.1105 68.0392C25.2947 68.4529 25.6403 68.7739 26.0671 68.927C26.4938 69.08 26.9639 69.0515 27.3699 68.8491L28.5528 68.2571L29.8997 72.4516L27.735 81.6797H3.32032V67.3641ZM26.2668 48.9487L34.2388 61.702L27.438 65.1028L21.9679 52.8105L26.2668 48.9487ZM18.4277 29.2188V25.3816L23.0386 18.6249C26.7324 21.7669 31.0975 23.2422 36.6149 23.2422C42.1381 23.2422 46.5064 21.7636 50.2009 18.6151L54.9512 25.4555V29.2187C54.9512 39.1609 46.8248 47.4805 36.6311 47.4805C26.4704 47.4805 18.4277 39.1868 18.4277 29.2187V29.2188ZM33.3108 3.32031H39.9514C48.2224 3.32031 54.9512 10.0225 54.9512 18.2617V19.6339L51.8339 15.145C51.5518 14.7384 51.1024 14.479 50.6088 14.4375C50.1147 14.396 49.6296 14.5769 49.2833 14.931C45.9085 18.3823 42.0013 19.9219 36.6149 19.9219C31.2291 19.9219 27.3213 18.3823 23.9439 14.931C23.5963 14.575 23.1067 14.3947 22.6119 14.4382C22.1164 14.4816 21.6664 14.7449 21.3862 15.1561L18.4278 19.4913V18.2617C18.4278 10.0225 25.104 3.32031 33.3108 3.32031H33.3108ZM38.9903 61.702L46.961 48.948L51.2599 52.8105L45.7898 65.1028L38.9903 61.702ZM36.6142 59.2377L30.8452 50.009C32.7187 50.5297 34.6655 50.8001 36.6311 50.8001C38.5779 50.8001 40.5104 50.5349 42.3742 50.0226L36.6142 59.2377ZM40.4248 70.7227H32.8315L31.5579 66.7545L36.6149 64.226L41.7802 66.8096L40.4248 70.7227ZM32.9366 74.043H40.2821L42.0227 81.6797H31.1454L32.9366 74.043ZM73.2278 67.3641C73.2278 58.2352 62.8311 51.0757 53.9194 50.7366L49.3728 46.6517C54.9103 42.6115 58.2715 36.1188 58.2715 29.2188V18.2617C58.2715 8.19248 50.0531 0 39.9514 0H33.3108C23.2228 0 15.1075 8.1633 15.1075 18.2617V29.2188C15.1075 36.1071 18.4239 42.5876 23.8894 46.6206L19.3084 50.7366C10.4162 51.0751 3.05176e-05 58.2164 3.05176e-05 67.3641V83.3398C3.05176e-05 84.2568 0.74321 85 1.66019 85H71.5677C72.4847 85 73.2278 84.2568 73.2278 83.3398L73.2278 67.3641Z" fill="#32325F"/>
<path fill-rule="evenodd" clip-rule="evenodd" d="M58.1969 74.043H51.5563C50.6393 74.043 49.8961 74.7861 49.8961 75.7031C49.8961 76.6201 50.6393 77.3633 51.5563 77.3633H58.1969C59.1139 77.3633 59.8571 76.6201 59.8571 75.7031C59.8571 74.7861 59.1139 74.043 58.1969 74.043H58.1969Z" fill="#32325F"/>
<path fill-rule="evenodd" clip-rule="evenodd" d="M64.7461 74.043C65.6624 74.043 66.4063 74.7868 66.4063 75.7031C66.4063 76.6194 65.6624 77.3633 64.7461 77.3633C63.8298 77.3633 63.0859 76.6194 63.0859 75.7031C63.0859 74.7868 63.8298 74.043 64.7461 74.043Z" fill="#32325F"/>
</svg>
