<svg width="86" height="85" viewBox="0 0 86 85" fill="none" xmlns="http://www.w3.org/2000/svg">
<path fill-rule="evenodd" clip-rule="evenodd" d="M39.1012 57.6515C39.749 57.0024 39.749 55.9518 39.1012 55.3027C38.4527 54.6555 37.4021 54.6555 36.753 55.3027C36.1058 55.9518 36.1058 57.0024 36.753 57.6515C37.4021 58.2987 38.4527 58.2987 39.1012 57.6515Z" fill="black"/>
<path fill-rule="evenodd" clip-rule="evenodd" d="M64.4354 18.2565C64.4354 26.4931 57.7345 33.194 49.4979 33.194C41.2613 33.194 34.5604 26.4931 34.5604 18.2565C34.5604 10.0206 41.2613 3.31966 49.4979 3.31966C57.7345 3.31966 64.4354 10.0206 64.4354 18.2565ZM31.2414 18.2565C31.2414 28.3232 39.4313 36.5137 49.4979 36.5137C59.5646 36.5137 67.7545 28.3232 67.7545 18.2565C67.7545 8.18989 59.5646 0 49.4979 0C39.4313 0 31.2414 8.18989 31.2414 18.2565Z" fill="#32325F"/>
<path fill-rule="evenodd" clip-rule="evenodd" d="M10.7677 57.8175C11.315 57.2702 12.1554 57.1716 12.8227 57.5841C13.11 57.7592 12.2851 57.0082 27.198 71.9003C27.8614 72.5638 27.8258 73.6208 27.2071 74.2395L20.3473 80.9975L4.03948 64.5652L10.7677 57.8175ZM31.5728 46.8034C34.1149 46.8034 36.5727 47.3151 38.8794 48.3242C39.0895 48.4163 39.3158 48.4636 39.5448 48.4636H58.3921C60.1917 48.4636 61.7117 49.9312 61.7117 51.7826C61.7117 53.6133 60.2228 55.1023 58.3921 55.1023H44.8508C43.9345 55.1023 43.1913 55.8455 43.1913 56.7618C43.1913 57.6788 43.9345 58.4213 44.8508 58.4213H58.3921C62.0528 58.4213 65.0308 55.4434 65.0308 51.7826C65.0308 51.4908 65.01 51.2016 64.9724 50.9149C74.4463 41.1764 75.7822 39.8081 75.8393 39.74C77.0222 38.3438 79.122 38.1667 80.5189 39.3444C81.917 40.5266 82.0941 42.6252 80.908 44.0292L66.0217 61.8253C63.8479 63.9121 60.9939 65.0606 57.9771 65.0606H35.9132C33.7511 65.0606 31.7044 65.8875 30.1519 67.3874L28.7415 68.7486L15.7391 55.7469C18.7779 50.0459 24.4802 46.8035 31.5728 46.8035L31.5728 46.8034ZM19.156 84.5091C19.7993 85.1576 20.8466 85.1647 21.4984 84.5227L29.5449 76.5955C30.912 75.2284 31.3277 73.2045 30.7265 71.4451L32.4573 69.7758C33.3892 68.8757 34.6162 68.3796 35.9132 68.3796H57.9771C61.8914 68.3796 65.5911 66.8764 68.3958 64.1469C68.5113 64.0347 67.5197 65.2026 83.4481 46.1653C85.8106 43.3703 85.4572 39.1732 82.6596 36.8081C79.8794 34.4651 75.7148 34.8016 73.3458 37.5487L63.5522 47.6147C62.3155 46.0927 60.4297 45.1439 58.3921 45.1439H39.8846C37.251 44.0421 34.4567 43.4844 31.5734 43.4844C23.5813 43.4844 16.6029 47.1757 12.8578 54.0964C11.28 53.7975 9.61593 54.2748 8.4188 55.4719L0.523333 63.3907C-0.121277 64.0373 -0.122568 65.0833 0.520743 65.7318L19.156 84.5091Z" fill="#32325F"/>
<path fill-rule="evenodd" clip-rule="evenodd" d="M47.5064 8.29881V10.2437C45.5745 10.9285 44.1867 12.7735 44.1867 14.9375C44.1867 17.6826 46.4201 19.9167 49.1659 19.9167C50.0809 19.9167 50.8254 20.6611 50.8254 21.5762C50.8254 22.4912 50.0809 23.2357 49.1659 23.2357C48.4571 23.2357 47.6912 22.7902 47.0109 21.9802C46.4208 21.2785 45.3741 21.1884 44.6724 21.7779C43.9708 22.368 43.88 23.4147 44.4701 24.1164C45.3573 25.1715 46.4007 25.9069 47.5064 26.2778V28.2149C47.5064 29.1319 48.2496 29.8744 49.1659 29.8744C50.0822 29.8744 50.8254 29.1319 50.8254 28.2149V26.27C52.7573 25.5846 54.1451 23.7396 54.1451 21.5762C54.1451 18.8305 51.9116 16.597 49.1659 16.597C48.2509 16.597 47.5064 15.8525 47.5064 14.9375C47.5064 14.0225 48.2509 13.2774 49.1659 13.2774C49.7541 13.2774 50.3747 13.5776 50.9609 14.145C51.6198 14.7825 52.6704 14.765 53.3079 14.1068C53.9453 13.4479 53.9278 12.3973 53.2696 11.7599C52.4272 10.9447 51.5841 10.4836 50.8254 10.232V8.29883C50.8254 7.38185 50.0822 6.63867 49.1659 6.63867C48.2496 6.63867 47.5064 7.38185 47.5064 8.29883V8.29881Z" fill="black"/>
</svg>
