<svg width="86" height="85" viewBox="0 0 86 85" fill="none" xmlns="http://www.w3.org/2000/svg">
<path fill-rule="evenodd" clip-rule="evenodd" d="M35.5625 51.7969C34.6462 51.7969 33.9023 52.5407 33.9023 53.457C33.9023 54.3734 34.6462 55.1172 35.5625 55.1172C36.4788 55.1172 37.2227 54.3734 37.2227 53.457C37.2227 52.5407 36.4788 51.7969 35.5625 51.7969Z" fill="#32325F"/>
<path fill-rule="evenodd" clip-rule="evenodd" d="M35.5625 61.7578C34.6462 61.7578 33.9023 62.5017 33.9023 63.418C33.9023 64.3343 34.6462 65.0781 35.5625 65.0781C36.4788 65.0781 37.2227 64.3343 37.2227 63.418C37.2227 62.5017 36.4788 61.7578 35.5625 61.7578Z" fill="#32325F"/>
<path fill-rule="evenodd" clip-rule="evenodd" d="M64.1172 51.7969H42.2031C41.2861 51.7969 40.543 52.54 40.543 53.457C40.543 54.374 41.2861 55.1172 42.2031 55.1172H64.1172C65.0342 55.1172 65.7773 54.374 65.7773 53.457C65.7773 52.54 65.0342 51.7969 64.1172 51.7969Z" fill="#32325F"/>
<path fill-rule="evenodd" clip-rule="evenodd" d="M64.1172 61.7578H42.2031C41.2861 61.7578 40.543 62.501 40.543 63.418C40.543 64.335 41.2861 65.0781 42.2031 65.0781H64.1172C65.0342 65.0781 65.7773 64.335 65.7773 63.418C65.7773 62.501 65.0342 61.7578 64.1172 61.7578Z" fill="#32325F"/>
<path fill-rule="evenodd" clip-rule="evenodd" d="M10.583 68.3984C10.2898 71.5618 9.16665 74.635 7.33983 77.2375C5.51301 74.6351 4.38981 71.5618 4.09669 68.3984H10.583ZM7.33983 3.32031C8.25551 3.32031 8.99999 4.06479 8.99999 4.98047V6.85333C8.46238 6.7139 7.90468 6.64062 7.33983 6.64062C6.77499 6.64062 6.21728 6.7139 5.67967 6.85268V4.98046C5.67967 4.06478 6.42415 3.3203 7.33983 3.3203V3.32031ZM4.01952 16.6016V13.2812C4.01952 11.4583 5.50458 9.96094 7.33983 9.96094C9.14395 9.96094 10.6601 11.424 10.6601 13.2812V16.6016H4.01952ZM10.6601 65.0781H4.01953V19.9219H10.6602L10.6601 65.0781ZM5.67968 80.5727V83.3398C5.67968 84.2568 6.42286 85 7.33984 85C8.25682 85 9 84.2568 9 83.3398V80.5727L9.66406 79.6875C12.4474 75.9768 13.9805 71.3776 13.9805 66.7383V19.9219H15.6406C16.5563 19.9219 17.3008 20.6663 17.3008 21.582V36.8555C17.3008 37.7724 18.044 38.5156 18.9609 38.5156C19.8779 38.5156 20.6211 37.7724 20.6211 36.8555V21.582C20.6211 18.8356 18.387 16.6016 15.6406 16.6016H13.9805V13.2812C13.9805 11.6483 13.3936 10.1062 12.3203 8.89221V4.98047C12.3203 2.23408 10.0862 0 7.33985 0C4.59346 0 2.35938 2.23408 2.35938 4.98047V8.89351C1.29714 10.0978 0.699219 11.6574 0.699219 13.2812V66.7383C0.699219 71.3783 2.23227 75.9768 5.01563 79.6875L5.67968 80.5727Z" fill="#32325F"/>
<path fill-rule="evenodd" clip-rule="evenodd" d="M82.3789 25.2344H75.7383V18.5938C75.7383 16.7365 77.2467 15.2734 79.0586 15.2734C80.8893 15.2734 82.3789 16.763 82.3789 18.5938V25.2344ZM72.418 18.5937V76.3438C72.418 79.0935 70.4251 81.6797 67.4375 81.6797C64.6911 81.6797 62.457 79.4456 62.457 76.6992V73.3789C62.457 72.4619 61.7139 71.7187 60.7969 71.7187H27.2617V20.2539C27.2617 17.5075 29.4958 15.2566 32.2422 15.2566H73.3058C72.737 16.2429 72.418 17.3973 72.418 18.5937H72.418ZM28.9219 81.6797C24.9135 81.6797 21.5588 78.8231 20.7878 75.0391H59.1367V76.6992C59.1367 78.5663 59.7567 80.2913 60.8008 81.6797L28.9219 81.6797ZM85.6992 26.8945V18.5937C85.6992 14.9323 82.72 11.9531 79.0586 11.9531C78.6831 11.9531 32.2422 11.9531 32.2422 11.9531C27.6651 11.9531 23.9414 15.6768 23.9414 20.2539V71.7187H18.9609C18.044 71.7187 17.3008 72.4619 17.3008 73.3789C17.3008 79.7867 22.5141 85 28.9219 85H67.4375C72.2967 85 75.7383 80.8619 75.7383 76.3438V28.5547H84.0391C84.956 28.5547 85.6992 27.8115 85.6992 26.8945Z" fill="#32325F"/>
<path fill-rule="evenodd" clip-rule="evenodd" d="M44.0539 25.2344C47.085 25.2344 48.1596 28.851 48.2037 29.0054C48.4047 29.7174 49.0539 30.2071 49.7944 30.211H49.8029C50.5428 30.211 51.1946 29.7168 51.3995 29.0054C51.4436 28.851 52.5181 25.2344 55.5473 25.2344C57.8773 25.2344 59.6348 27.2026 59.6348 29.8128C59.6348 33.0014 56.6523 35.5183 51.7108 39.6888C51.0914 40.2115 50.4579 40.7458 49.8016 41.3068C49.1446 40.7458 48.5111 40.2115 47.8917 39.6881C42.9508 35.5183 39.9684 33.0014 39.9684 29.8128C39.9684 27.2026 41.7252 25.2344 44.0539 25.2344H44.0539ZM45.7504 42.2257C46.6966 43.0246 47.6758 43.8508 48.7147 44.7509C49.0266 45.0214 49.4138 45.1562 49.8016 45.1562C50.1894 45.1562 50.5772 45.0214 50.8891 44.7509C51.9273 43.8508 52.9059 43.0246 53.8527 42.2263C59.1374 37.7666 62.9551 34.5442 62.9551 29.8128C62.9551 25.3835 59.7015 21.9141 55.5479 21.9141C52.7548 21.9141 50.9332 23.4114 49.8016 24.9348C48.6699 23.4114 46.8477 21.9141 44.0539 21.9141C39.9009 21.9141 36.6481 25.3835 36.6481 29.8128C36.6481 34.5442 40.4664 37.766 45.7504 42.2257Z" fill="#32325F"/>
</svg>
