<svg width="86" height="85" viewBox="0 0 86 85" fill="none" xmlns="http://www.w3.org/2000/svg">
<path fill-rule="evenodd" clip-rule="evenodd" d="M42.8594 58.4375C41.9431 58.4375 41.1992 59.1813 41.1992 60.0977C41.1992 61.014 41.9431 61.7578 42.8594 61.7578C43.7757 61.7578 44.5195 61.014 44.5195 60.0977C44.5195 59.1813 43.7757 58.4375 42.8594 58.4375Z" fill="black"/>
<path fill-rule="evenodd" clip-rule="evenodd" d="M69.4478 38.3327L52.6251 29.9211L54.1485 27.89C54.5252 27.3874 54.5862 26.7143 54.3047 26.1514C54.0239 25.5891 53.4487 25.2344 52.8203 25.2344H49.8917L56.1536 22.1028L79.8193 33.5086L69.4478 38.3327ZM56.1543 58.2481L46.5714 53.457L69.4478 42.0188L79.8199 46.843L56.1543 58.2481ZM67.7617 69.032L44.5195 80.6531V66.7383C44.5195 65.8213 43.7764 65.0781 42.8594 65.0781C41.9424 65.0781 41.1992 65.8213 41.1992 66.7383V80.6531L17.957 69.032V56.3396L28.857 61.5931C29.32 61.8162 29.8602 61.8123 30.3207 61.5827L42.8594 55.313L55.3981 61.5827C55.8579 61.8123 56.3981 61.8162 56.8611 61.5931L67.7617 56.3396L67.7617 69.032ZM16.271 42.0188L39.1474 53.457L29.5645 58.2481L5.89887 46.843L16.271 42.0188ZM29.5645 22.1034L35.8271 25.2344H32.8985C32.2694 25.2344 31.6948 25.5898 31.4134 26.152C31.1326 26.7143 31.1929 27.3874 31.5703 27.8906L33.093 29.9217L16.271 38.3327L5.89887 33.5086L29.5645 22.1034ZM42.8594 51.601L20.0089 40.1758L35.1176 32.6214L41.5313 41.1719C41.8451 41.5901 42.3367 41.8359 42.8594 41.8359C43.3821 41.8359 43.8736 41.5901 44.1875 41.1719L50.6005 32.6214L65.7092 40.1758L42.8594 51.601ZM39.5391 3.32031H46.1797V26.8945C46.1797 27.8109 46.9229 28.5547 47.8399 28.5547H49.5007L42.8594 37.4093L36.9425 29.521L36.2181 28.5547H37.8789C38.7959 28.5547 39.5391 27.8109 39.5391 26.8945L39.5391 3.32031ZM85.3594 33.5462C85.3633 32.9048 84.9975 32.3179 84.4197 32.0397L56.8611 18.7585C56.3981 18.5354 55.8579 18.5393 55.3981 18.7689L49.5 21.7182V1.66016C49.5 0.74318 48.7569 0 47.8399 0H37.8789C36.962 0 36.2188 0.74318 36.2188 1.66016V21.7182L30.3207 18.7689C29.8609 18.5393 29.32 18.5354 28.8577 18.7585L1.29908 32.0397C0.720615 32.3186 0.355505 32.9048 0.359405 33.5462C0.363945 34.1882 0.737475 34.7699 1.31984 35.0403L12.3605 40.1758L1.31984 45.3112C0.738135 45.5817 0.363945 46.1634 0.359405 46.8047C0.355515 47.4467 0.720615 48.033 1.29908 48.3118L14.6367 54.7398V70.0586C14.6367 70.687 14.9921 71.2622 15.5544 71.543L42.1169 84.8242C42.1324 84.832 42.1487 84.8372 42.1642 84.8444C42.1895 84.8567 42.2148 84.8671 42.2407 84.8774C42.2822 84.8943 42.3244 84.9092 42.3665 84.9222C42.3918 84.93 42.4165 84.9384 42.4424 84.9449C42.4885 84.9565 42.5345 84.9656 42.5812 84.9734C42.6045 84.9773 42.6272 84.9825 42.6506 84.9857C42.7135 84.9935 42.7757 84.998 42.8386 84.9987C42.8464 84.9987 42.8529 85 42.8607 85C42.9314 85 43.0021 84.9941 43.0728 84.9851C43.0903 84.9831 43.1078 84.9792 43.1253 84.976C43.1772 84.9676 43.229 84.9572 43.2803 84.9436C43.3036 84.9377 43.327 84.93 43.3503 84.9228C43.3951 84.9092 43.4385 84.8936 43.4826 84.8761C43.5079 84.8657 43.5332 84.8554 43.5578 84.8437C43.5728 84.8366 43.5877 84.832 43.6019 84.8249L70.1644 71.5436C70.7267 71.2622 71.0821 70.6876 71.0821 70.0586V54.7404L84.4197 48.3125C84.9982 48.0336 85.3639 47.4467 85.3594 46.8054C85.3549 46.1634 84.9813 45.5817 84.399 45.3112L73.3583 40.1758L84.399 35.0403C84.9813 34.7699 85.3549 34.1882 85.3594 33.5462H85.3594Z" fill="#32325F"/>
</svg>
