<svg width="19" height="19" viewBox="0 0 19 19" fill="none" xmlns="http://www.w3.org/2000/svg">
<path fill-rule="evenodd" clip-rule="evenodd" d="M9.49999 6.16016C7.6584 6.16016 6.16015 7.65841 6.16015 9.5C6.34362 13.9307 12.657 13.9294 12.8398 9.49996C12.8398 7.65841 11.3416 6.16015 9.5 6.16015L9.49999 6.16016ZM9.49999 14.3242C6.83988 14.3242 4.67577 12.1601 4.67577 9.5C4.94073 3.10001 14.0602 3.10186 14.3242 9.50004C14.3242 12.1601 12.1601 14.3242 9.49999 14.3242ZM14.7324 3.33984C14.22 3.33984 13.8047 3.75521 13.8047 4.26757C13.8047 4.77994 14.22 5.1953 14.7324 5.1953C15.2448 5.1953 15.6601 4.77994 15.6601 4.26757C15.6601 3.7552 15.2448 3.33984 14.7324 3.33984ZM4.45312 1.48438C2.81615 1.48438 1.48437 2.81616 1.48437 4.45313V14.5469C1.48437 16.1838 2.81615 17.5156 4.45312 17.5156H14.5469C16.1838 17.5156 17.5156 16.1838 17.5156 14.5469V4.45313C17.5156 2.81616 16.1838 1.48438 14.5469 1.48438H4.45312ZM14.5469 19H4.45312C1.99767 19 0 17.0023 0 14.5469V4.45313C0 1.99768 1.99767 7.62939e-06 4.45313 7.62939e-06H14.5469C17.0023 7.62939e-06 19 1.99768 19 4.45314V14.5469C19 17.0023 17.0023 19 14.5469 19L14.5469 19Z" fill="#95989A"/>
</svg>
