<svg width="39" height="18" viewBox="0 0 39 18" fill="none" xmlns="http://www.w3.org/2000/svg">
<mask id="mask0_0_4" style="mask-type:alpha" maskUnits="userSpaceOnUse" x="0" y="0" width="39" height="17">
<path fill-rule="evenodd" clip-rule="evenodd" d="M0 17V0H39V17H0Z" fill="#95989A"/>
</mask>
<g mask="url(#mask0_0_4)">
<path fill-rule="evenodd" clip-rule="evenodd" d="M16.9651 12.34V4.94011L23.3891 8.64003L16.9651 12.34ZM31.2565 2.70392C30.9721 1.64661 30.1385 0.81314 29.0813 0.52843C27.15 0 19.4247 0 19.4247 0C19.4247 0 11.6996 0 9.76828 0.5084C8.73145 0.7928 7.8775 1.64676 7.59309 2.70392C7.08484 4.63507 7.08484 8.64004 7.08484 8.64004C7.08484 8.64004 7.08484 12.6652 7.59309 14.5762C7.87779 15.6333 8.71111 16.4668 9.76843 16.7515C11.7199 17.2801 19.425 17.2801 19.425 17.2801C19.425 17.2801 27.15 17.2801 29.0813 16.7717C30.1386 16.4871 30.9721 15.6536 31.2568 14.5965C31.7649 12.6652 31.7649 8.66037 31.7649 8.66037C31.7649 8.66037 31.7852 4.63507 31.2565 2.70392Z" fill="#95989A"/>
</g>
</svg>
